<?xml version="1.0" standalone="no"?>
<!DOCTYPE svg PUBLIC "-//W3C//DTD SVG 20010904//EN"
 "http://www.w3.org/TR/2001/REC-SVG-20010904/DTD/svg10.dtd">
<svg version="1.0" xmlns="http://www.w3.org/2000/svg"
 width="1200.000000pt" height="513.000000pt" viewBox="0 0 1200.000000 513.000000"
 preserveAspectRatio="xMidYMid meet">

<g transform="translate(0.000000,513.000000) scale(0.100000,-0.100000)"
fill="#000000" stroke="none">
<path d="M9650 4357 l0 -216 53 -10 c92 -19 357 -50 522 -60 268 -18 527 -13
762 15 l51 6 -14 40 c-52 148 -162 286 -271 340 l-65 32 -247 8 c-318 10 -597
30 -753 54 l-38 6 0 -215z"/>
<path d="M9850 3761 c132 -214 251 -597 281 -906 14 -146 7 -478 -15 -655 -59
-479 -206 -932 -427 -1312 l-39 -66 0 -256 c0 -141 3 -256 8 -256 15 1 180
125 274 207 432 376 757 925 911 1539 70 278 98 537 97 876 l-2 212 445 152
c245 83 468 164 497 180 80 44 110 101 110 215 l0 56 -247 7 c-394 10 -901 25
-1413 41 -261 8 -483 15 -493 15 -14 0 -12 -7 13 -49z"/>
<path d="M1205 2946 c-87 -14 -197 -47 -257 -77 l-37 -19 26 -63 c15 -34 28
-64 30 -66 1 -2 26 6 54 19 230 99 475 85 560 -33 36 -49 47 -89 55 -194 8
-94 16 -86 -101 -98 -266 -29 -484 -113 -594 -230 -85 -91 -105 -148 -105
-295 0 -146 22 -209 98 -285 102 -100 228 -139 451 -138 164 0 289 20 400 64
l60 24 3 520 c2 451 0 527 -14 575 -44 151 -131 236 -294 284 -75 23 -237 28
-335 12z m435 -965 c0 -260 -3 -331 -13 -340 -32 -26 -140 -43 -256 -40 -103
4 -122 7 -173 32 -110 54 -155 145 -145 291 11 160 88 256 257 317 72 26 253
65 313 68 16 1 17 -21 17 -328z"/>
<path d="M2590 2949 c-96 -10 -207 -37 -292 -69 l-58 -21 0 -685 0 -684 115 0
115 0 0 635 0 634 73 23 c58 19 95 23 192 23 111 0 124 -2 178 -28 31 -16 68
-43 82 -61 55 -72 55 -73 55 -672 l0 -554 120 0 120 0 0 503 c0 276 -5 540
-10 587 -21 187 -127 305 -318 356 -72 19 -261 26 -372 13z"/>
<path d="M3921 2944 c-120 -32 -218 -113 -269 -222 -24 -51 -27 -68 -26 -162
0 -122 17 -171 84 -244 55 -59 115 -97 250 -156 62 -27 127 -60 145 -74 132
-101 115 -331 -30 -413 -98 -55 -242 -51 -366 10 l-66 32 -31 -75 -30 -75 26
-18 c95 -63 342 -96 472 -63 98 25 169 63 231 125 78 79 111 153 117 262 5
103 -12 174 -61 245 -56 82 -108 116 -337 222 -141 65 -199 145 -187 258 13
127 104 204 241 204 74 0 147 -19 201 -52 17 -10 33 -18 36 -18 7 0 59 116 59
131 0 16 -121 68 -196 84 -87 18 -193 18 -263 -1z"/>
<path d="M4983 2945 c-122 -33 -219 -110 -271 -214 -24 -51 -27 -66 -27 -166
0 -98 3 -116 26 -165 46 -98 133 -168 284 -229 196 -80 254 -145 255 -282 0
-165 -139 -276 -319 -254 -74 9 -162 37 -199 64 l-30 21 -27 -68 c-15 -37 -29
-72 -32 -79 -7 -18 113 -70 207 -89 169 -34 335 -7 458 74 137 90 207 261 173
423 -31 146 -126 239 -338 329 -179 76 -243 145 -243 263 0 107 60 190 156
217 72 21 180 9 259 -29 37 -17 69 -30 70 -29 2 2 15 32 30 67 30 72 33 67
-55 108 -111 51 -270 67 -377 38z"/>
<path d="M6210 2945 c-231 -52 -382 -228 -434 -505 -24 -122 -22 -347 4 -470
52 -252 205 -425 430 -486 132 -35 388 -19 531 35 95 36 94 35 61 116 -16 39
-33 69 -38 68 -5 -1 -41 -14 -79 -27 -202 -72 -416 -56 -536 39 -85 67 -148
196 -167 343 -8 59 -7 63 12 67 29 6 863 125 877 125 18 0 4 209 -20 301 -38
147 -125 276 -229 336 -104 61 -285 87 -412 58z m267 -168 c55 -28 102 -77
132 -135 24 -47 51 -175 51 -241 0 -44 -3 -51 -22 -55 -45 -10 -628 -96 -648
-96 -18 0 -20 7 -20 74 0 179 66 346 166 423 90 68 239 81 341 30z"/>
<path d="M7560 2949 c-96 -10 -207 -37 -292 -69 l-58 -21 0 -685 0 -684 115 0
115 0 0 629 c0 491 3 631 13 639 25 20 124 43 212 49 173 11 274 -33 330 -141
l30 -60 3 -558 3 -558 115 0 114 0 0 533 c0 563 -3 613 -46 703 -29 61 -117
148 -177 174 -112 50 -300 69 -477 49z"/>
<path d="M267 2168 c-3 -675 -5 -770 -20 -826 -35 -128 -100 -220 -191 -268
l-56 -29 0 -76 0 -77 47 10 c169 35 325 174 393 350 58 150 60 180 60 964 l0
714 -114 0 -115 0 -4 -762z"/>
</g>
</svg>
