<?xml version="1.0" standalone="no"?>
<!DOCTYPE svg PUBLIC "-//W3C//DTD SVG 20010904//EN"
 "http://www.w3.org/TR/2001/REC-SVG-20010904/DTD/svg10.dtd">
<svg version="1.0" xmlns="http://www.w3.org/2000/svg"
 width="1365.000000pt" height="491.000000pt" viewBox="0 0 1365.000000 491.000000"
 preserveAspectRatio="xMidYMid meet">

<g transform="translate(0.000000,491.000000) scale(0.100000,-0.100000)"
fill="#000000" stroke="none">
<path d="M2282 3749 c-296 -38 -561 -175 -777 -400 -174 -181 -283 -390 -336
-642 -28 -134 -30 -350 -4 -487 102 -540 526 -962 1060 -1054 116 -21 334 -21
449 0 540 94 964 516 1063 1059 24 132 22 351 -6 482 -142 678 -771 1130
-1449 1042z m348 -64 c139 -21 232 -50 355 -109 403 -195 659 -561 706 -1010
14 -131 1 -288 -35 -428 -120 -460 -494 -812 -965 -908 -137 -28 -345 -28
-482 0 -503 103 -886 490 -986 998 -22 116 -22 347 1 457 85 400 323 709 681
885 232 115 477 153 725 115z"/>
<path d="M2330 3555 c0 -69 3 -85 15 -85 12 0 15 14 16 63 l0 62 23 -60 c13
-34 29 -60 37 -60 8 0 22 25 34 60 l20 60 3 -57 c2 -43 7 -58 17 -58 12 0 15
17 15 81 l0 80 -27 -3 c-24 -3 -30 -10 -42 -55 -8 -29 -17 -53 -21 -53 -3 0
-14 25 -24 55 -14 47 -21 55 -42 55 -24 0 -24 -1 -24 -85z"/>
<path d="M2562 3553 c-6 -43 -9 -79 -8 -80 1 -2 24 -6 51 -10 38 -5 47 -3 43
8 -2 8 -17 15 -32 17 -21 3 -27 8 -24 25 2 17 9 21 31 19 19 -2 27 2 27 13 0
9 -9 15 -25 15 -18 0 -25 5 -25 20 0 16 7 20 35 20 19 0 35 4 35 9 0 10 -35
21 -71 21 -25 0 -26 -3 -37 -77z"/>
<path d="M2726 3602 c-2 -4 -11 -33 -20 -64 -9 -32 -19 -64 -22 -72 -4 -10 5
-18 33 -25 56 -16 71 -14 98 14 35 34 35 98 1 120 -29 20 -84 36 -90 27z m66
-49 c22 -20 23 -42 2 -71 -14 -21 -58 -30 -67 -14 -8 12 23 102 35 102 6 0 20
-7 30 -17z"/>
<path d="M2117 3593 c-3 -4 4 -42 15 -84 l20 -76 44 10 c52 12 61 38 12 35
-32 -3 -33 -1 -48 56 -15 56 -31 78 -43 59z"/>
<path d="M1991 3523 c6 -16 20 -51 30 -80 l20 -52 44 17 c25 9 45 22 45 30 0
13 -12 12 -57 -5 -7 -3 -20 21 -34 56 -16 45 -27 61 -40 61 -16 0 -17 -4 -8
-27z"/>
<path d="M2872 3478 c-19 -45 -27 -77 -21 -82 13 -14 23 0 53 72 25 58 27 82
7 82 -5 0 -22 -33 -39 -72z"/>
<path d="M1887 3499 c-21 -11 -37 -23 -35 -27 2 -4 19 -37 37 -74 l35 -67 40
21 c50 25 49 24 41 37 -4 8 -15 6 -34 -3 -24 -13 -28 -13 -39 4 -9 15 -7 21
14 35 28 18 23 41 -6 25 -26 -14 -37 -13 -44 5 -4 10 3 20 19 27 14 6 25 17
25 25 0 17 -7 16 -53 -8z"/>
<path d="M2950 3468 c-27 -29 -35 -64 -22 -93 14 -31 57 -59 79 -51 14 6 11
10 -15 26 -73 45 -16 139 60 99 29 -16 37 0 9 22 -32 26 -85 25 -111 -3z"/>
<path d="M1782 3438 c-8 -10 -3 -23 19 -52 16 -22 27 -41 25 -43 -2 -3 -28 8
-56 22 -47 24 -54 25 -67 12 -13 -13 -9 -23 34 -80 36 -48 53 -63 61 -55 8 8
3 23 -19 54 -16 24 -27 44 -24 44 3 0 29 -12 57 -26 45 -23 52 -24 65 -11 13
13 10 22 -27 73 -57 78 -55 77 -68 62z"/>
<path d="M2305 3416 c-218 -34 -401 -131 -562 -299 -127 -132 -212 -294 -248
-476 -26 -126 -17 -335 19 -456 100 -335 355 -584 691 -677 116 -32 374 -32
490 0 290 80 537 293 650 561 60 143 70 198 69 391 0 160 -3 182 -27 263 -114
373 -415 634 -797 692 -112 17 -176 18 -285 1z m254 -56 c102 -13 225 -51 311
-96 68 -36 183 -117 188 -134 3 -7 -210 -10 -607 -10 -336 0 -611 4 -611 8 0
12 86 75 165 121 114 67 287 115 430 120 22 0 78 -4 124 -9z m-705 -1230 c66
-203 225 -376 498 -542 l83 -50 -76 6 c-214 18 -411 116 -572 286 -125 132
-206 291 -237 466 -18 102 -8 307 20 404 38 134 123 282 219 383 l36 38 5
-468 c5 -414 8 -474 24 -523z m1372 804 c55 -89 89 -171 115 -282 28 -115 23
-338 -10 -447 -110 -365 -428 -631 -790 -661 l-76 -6 80 48 c256 152 429 335
497 524 23 64 23 72 26 540 l4 475 55 -60 c30 -33 75 -92 99 -131z m-216 -104
l0 -230 -560 0 -560 0 0 230 0 230 560 0 560 0 0 -230z m-590 -319 c0 -28 -1
-28 -77 -35 -42 -3 -106 -6 -144 -6 -91 0 -99 -4 -99 -51 0 -37 -2 -39 -30
-39 -25 0 -30 -4 -30 -25 0 -21 5 -25 30 -25 30 0 30 -1 30 -55 0 -54 0 -55
-30 -55 -25 0 -30 -4 -30 -25 0 -21 5 -25 30 -25 30 0 30 -1 30 -55 0 -54 0
-55 -30 -55 -25 0 -30 -4 -30 -25 0 -21 5 -25 30 -25 29 0 30 -1 30 -51 l0
-52 150 5 c114 4 152 3 160 -7 7 -8 10 -64 8 -150 l-3 -136 -105 69 c-174 116
-292 238 -361 374 -45 90 -59 165 -59 331 l0 147 265 0 265 0 0 -29z m588
-148 c-5 -199 -14 -239 -84 -355 -56 -93 -200 -232 -328 -316 -60 -40 -110
-71 -111 -70 -1 2 -5 62 -9 134 -6 109 -5 134 8 146 12 12 41 14 165 10 l151
-5 0 52 c0 50 1 51 30 51 25 0 30 4 30 25 0 21 -5 25 -30 25 -30 0 -30 1 -30
55 0 54 0 55 30 55 25 0 30 4 30 25 0 21 -5 25 -30 25 -30 0 -30 1 -30 55 0
54 0 55 30 55 25 0 30 4 30 25 0 21 -5 25 -30 25 -28 0 -30 2 -30 40 0 48 5
47 -185 55 -76 3 -140 7 -141 8 -1 1 0 14 3 30 l5 27 265 0 265 0 -4 -177z
m-590 -168 l2 -230 -77 -2 c-43 -2 -104 -5 -135 -9 l-58 -6 0 236 0 235 83 4
c45 2 105 3 132 3 l50 -1 3 -230z m280 225 l52 0 0 -236 0 -236 -57 6 c-32 4
-95 8 -140 9 l-83 2 0 226 c0 124 3 229 8 233 4 5 43 6 87 2 44 -3 104 -6 133
-6z"/>
<path d="M2000 2884 c0 -69 4 -134 10 -144 5 -10 43 -39 84 -65 l75 -46 68 39
c108 63 107 63 111 213 l4 129 -176 0 -176 0 0 -126z m298 49 l3 -33 -130 0
-131 0 0 28 c0 16 3 32 7 36 4 3 61 5 127 4 l121 -3 3 -32z m2 -122 c0 -43
-23 -68 -98 -105 -32 -17 -34 -16 -79 9 -66 39 -83 60 -83 100 l0 35 130 0
130 0 0 -39z"/>
<path d="M2560 2886 c0 -146 4 -153 108 -215 l66 -40 59 32 c32 18 71 45 88
61 l29 28 0 129 0 129 -175 0 -175 0 0 -124z m300 28 l0 -56 -37 30 c-91 70
-85 70 -153 17 l-60 -46 0 55 0 56 125 0 125 0 0 -56z m-52 -76 c31 -23 52
-46 52 -58 0 -12 -21 -31 -61 -56 -68 -41 -71 -40 -146 15 -24 17 -43 38 -43
46 0 20 119 107 134 98 6 -4 35 -24 64 -45z"/>
<path d="M2258 2353 c-34 -3 -48 -8 -48 -19 0 -10 12 -14 43 -14 68 0 117 11
117 26 0 14 -10 15 -112 7z"/>
<path d="M2210 2239 c0 -20 4 -21 53 -15 28 3 64 6 80 6 17 0 27 5 27 15 0 12
-16 15 -80 15 -75 0 -80 -1 -80 -21z"/>
<path d="M2283 2163 c-56 -3 -73 -7 -73 -18 0 -12 17 -15 80 -15 73 0 80 2 80
20 0 11 -3 19 -7 18 -5 -1 -41 -4 -80 -5z"/>
<path d="M2268 2063 c-42 -3 -58 -8 -58 -18 0 -12 14 -15 58 -15 71 0 102 8
102 26 0 8 -9 13 -22 12 -13 -1 -49 -3 -80 -5z"/>
<path d="M2530 2348 c0 -17 46 -28 118 -28 31 0 42 4 42 15 0 10 -10 15 -27
15 -16 0 -52 3 -80 6 -43 6 -53 4 -53 -8z"/>
<path d="M2530 2246 c0 -10 21 -16 76 -21 80 -7 90 -5 81 20 -9 21 -157 22
-157 1z"/>
<path d="M2530 2151 c0 -20 5 -21 80 -21 64 0 80 3 80 15 0 12 -14 15 -64 15
-35 0 -71 3 -80 6 -12 4 -16 0 -16 -15z"/>
<path d="M2530 2057 c0 -19 30 -27 103 -27 44 0 57 3 57 15 0 11 -11 15 -42
15 -24 0 -60 3 -80 6 -30 5 -38 3 -38 -9z"/>
<path d="M3090 3360 c-36 -22 -66 -44 -68 -49 -5 -15 18 -23 33 -11 22 18 65
-15 65 -51 0 -18 5 -29 14 -29 8 0 22 31 36 81 20 68 21 82 9 90 -19 12 -16
13 -89 -31z m54 -34 c-5 -22 -9 -24 -27 -15 -20 11 -20 12 4 30 29 21 32 19
23 -15z"/>
<path d="M1598 3280 l-33 -29 62 -62 c51 -52 63 -60 69 -45 4 11 -1 25 -15 40
-29 31 -13 41 33 22 30 -12 37 -12 46 -1 10 12 4 18 -29 31 -25 10 -41 23 -41
33 0 47 -47 53 -92 11z m59 -16 c9 -23 -13 -40 -32 -24 -12 10 -13 16 -4 26
15 18 28 18 36 -2z"/>
<path d="M3216 3251 l-58 -59 29 -32 c19 -21 34 -30 42 -26 9 6 7 14 -10 32
l-23 24 54 48 c44 40 50 49 38 59 -12 10 -25 2 -72 -46z"/>
<path d="M1496 3158 c-14 -13 -28 -35 -32 -50 -5 -23 0 -34 29 -63 38 -38 70
-44 105 -19 52 36 48 110 -9 139 -39 21 -64 19 -93 -7z m74 -23 c39 -20 48
-52 22 -78 -18 -18 -24 -19 -50 -8 -16 7 -35 23 -42 37 -11 20 -11 27 5 44 22
24 27 24 65 5z"/>
<path d="M3353 3115 c-33 -14 -53 -41 -53 -72 0 -30 38 -83 55 -77 13 5 12 10
-5 31 -25 32 -25 48 0 73 28 28 64 25 90 -7 14 -19 24 -23 31 -16 8 8 2 20
-18 41 -35 38 -59 45 -100 27z"/>
<path d="M1396 3005 c-20 -42 -13 -78 21 -105 28 -22 64 -26 94 -10 22 13 52
67 44 80 -10 17 -25 11 -25 -10 0 -11 -11 -27 -25 -36 -51 -34 -115 29 -82 79
15 23 13 37 -4 37 -3 0 -14 -16 -23 -35z"/>
<path d="M3414 2971 c-54 -33 -53 -102 1 -137 22 -14 32 -15 65 -5 71 21 88
97 33 141 -32 25 -59 25 -99 1z m84 -27 c12 -8 22 -22 22 -30 0 -23 -38 -54
-68 -54 -58 0 -70 49 -19 80 39 24 37 24 65 4z"/>
<path d="M3496 2791 c-33 -10 -62 -23 -64 -29 -6 -20 19 -82 34 -82 10 0 11 6
4 26 -13 33 -13 44 1 44 33 0 119 33 119 46 0 17 -18 16 -94 -5z"/>
<path d="M1445 2759 c-8 -34 -2 -33 -78 -13 -49 13 -61 13 -68 2 -6 -10 6 -17
46 -30 98 -30 107 -29 121 19 10 34 10 42 -1 47 -9 3 -16 -5 -20 -25z"/>
<path d="M3518 2668 c-62 -11 -64 -14 -52 -77 9 -41 24 -40 24 3 0 31 3 34 38
40 81 14 92 18 92 32 0 16 -18 16 -102 2z"/>
<path d="M1416 2639 c-5 -27 -9 -30 -33 -25 -93 17 -113 18 -113 2 0 -17 13
-21 103 -34 63 -10 59 -14 70 61 6 38 -19 35 -27 -4z"/>
<path d="M1260 2538 c0 -20 30 -28 108 -28 48 0 62 3 62 15 0 9 -9 15 -24 15
-12 0 -51 3 -85 6 -51 6 -61 4 -61 -8z"/>
<path d="M3543 2542 c-72 -3 -73 -3 -73 -30 0 -37 11 -72 21 -72 5 0 9 16 9
35 0 31 3 35 25 35 21 0 25 -5 25 -30 0 -16 5 -30 10 -30 6 0 10 14 10 30 0
23 4 30 20 30 16 0 20 -7 20 -30 0 -20 5 -30 16 -30 12 0 14 10 12 47 -2 25
-7 47 -13 48 -5 0 -43 -1 -82 -3z"/>
<path d="M1407 2474 c-4 -4 -7 -20 -7 -36 0 -23 -4 -28 -25 -28 -21 0 -25 5
-25 30 0 17 -4 30 -10 30 -5 0 -10 -13 -10 -30 0 -23 -4 -30 -20 -30 -16 0
-20 7 -20 30 0 20 -5 30 -15 30 -11 0 -15 -12 -15 -51 l0 -52 46 7 c26 3 64 6
85 6 37 0 39 1 38 33 -1 39 -12 71 -22 61z"/>
<path d="M3498 2390 c-27 -21 -40 -63 -31 -99 4 -17 13 -21 49 -21 42 0 44 1
44 30 0 32 -14 40 -24 15 -7 -20 -46 -20 -46 1 0 34 20 54 55 54 46 0 69 -24
62 -67 -6 -33 6 -53 19 -32 4 6 7 30 7 52 0 73 -78 112 -135 67z"/>
<path d="M1266 2305 c5 -11 23 -15 68 -16 l61 0 -55 -27 c-30 -15 -57 -28 -58
-29 -2 -1 -1 -11 3 -22 5 -17 16 -21 68 -23 l62 -3 -57 -27 c-55 -25 -66 -37
-52 -51 9 -8 154 65 154 78 0 23 -26 35 -79 35 l-56 0 55 26 c66 31 63 28 55
53 -6 19 -14 21 -90 21 -71 0 -83 -2 -79 -15z"/>
<path d="M3445 2201 c-9 -52 -8 -55 3 -59 5 -1 12 11 16 28 4 23 10 31 23 28
13 -3 18 -12 17 -36 -2 -39 21 -44 30 -7 4 16 13 25 27 25 18 0 19 -4 13 -36
-9 -48 16 -43 29 5 12 48 5 56 -54 69 -30 7 -64 15 -75 18 -19 5 -23 1 -29
-35z"/>
<path d="M3387 2028 c-2 -7 4 -28 15 -45 l20 -33 -36 0 c-25 0 -38 -6 -46 -19
-9 -18 -7 -19 43 -14 38 4 62 1 84 -11 28 -14 32 -14 37 0 8 22 9 20 -22 33
-15 6 -40 32 -56 56 -31 49 -32 51 -39 33z"/>
<path d="M1438 1995 c-34 -19 -44 -63 -23 -104 8 -17 20 -31 25 -31 13 0 13
27 0 35 -29 18 10 85 50 85 21 0 54 -27 62 -51 3 -8 9 -11 13 -7 11 11 -15 67
-36 78 -25 14 -59 12 -91 -5z"/>
<path d="M3290 1858 c-16 -22 -30 -45 -30 -49 0 -16 20 -20 26 -5 9 23 21 20
75 -18 38 -28 50 -32 58 -22 9 10 -1 22 -43 51 -46 32 -54 41 -46 56 26 47 -3
38 -40 -13z"/>
<path d="M1524 1861 c-39 -23 -50 -61 -30 -100 26 -50 88 -57 130 -15 30 30
32 53 11 93 -23 46 -60 53 -111 22z m86 -27 c32 -38 -35 -105 -78 -78 -26 17
-26 41 2 69 29 29 58 32 76 9z"/>
<path d="M3226 1771 c-10 -15 102 -104 121 -96 14 5 7 15 -37 55 -55 49 -74
58 -84 41z"/>
<path d="M1641 1696 c-35 -35 -49 -56 -41 -61 6 -4 22 3 35 15 21 20 25 21 31
7 3 -8 0 -25 -6 -37 -12 -22 -7 -50 8 -50 4 0 14 16 21 35 7 22 19 35 30 35
20 0 41 19 41 36 0 14 -48 74 -59 74 -4 0 -31 -24 -60 -54z m78 0 c8 -10 8
-16 -3 -25 -10 -9 -16 -8 -26 3 -12 15 -6 36 9 36 5 0 14 -6 20 -14z"/>
<path d="M3161 1704 c-26 -33 -26 -39 0 -65 13 -13 27 -18 37 -13 9 3 27 9 40
11 28 7 30 -17 2 -42 -14 -13 -17 -22 -10 -29 14 -14 60 31 60 60 0 33 -23 47
-69 39 -46 -8 -61 7 -32 32 19 16 20 33 1 33 -5 0 -18 -12 -29 -26z"/>
<path d="M1752 1588 c-33 -45 -41 -63 -32 -72 8 -8 15 -6 26 9 9 11 24 31 35
45 l20 25 -6 -45 c-4 -25 -9 -53 -11 -62 -3 -10 3 -21 14 -27 16 -9 25 -1 65
54 31 43 43 67 35 71 -7 4 -25 -9 -45 -32 l-33 -39 3 65 c3 86 -15 88 -71 8z"/>
<path d="M3044 1607 l-28 -25 27 -38 c57 -81 65 -90 77 -78 9 9 8 18 -5 38
-24 36 -12 43 30 20 26 -14 37 -16 46 -7 9 9 3 17 -22 32 -22 13 -36 31 -39
48 -7 38 -48 43 -86 10z m61 -17 c4 -6 1 -18 -6 -26 -11 -13 -14 -13 -27 0 -8
8 -11 19 -8 25 9 14 33 14 41 1z"/>
<path d="M2933 1539 l-31 -20 25 -47 c14 -26 32 -57 39 -69 l14 -22 38 21 c20
12 39 23 41 24 1 2 0 8 -4 14 -5 8 -14 6 -32 -6 -21 -13 -27 -14 -34 -3 -13
21 -11 26 13 43 28 20 16 33 -17 18 -22 -10 -27 -9 -32 5 -4 11 1 22 15 31 24
16 29 32 10 31 -7 0 -27 -9 -45 -20z"/>
<path d="M1905 1484 c-20 -36 -35 -67 -33 -68 9 -9 68 -36 78 -36 18 0 11 16
-15 30 -19 10 -22 16 -14 32 8 15 14 16 30 8 30 -17 46 0 19 20 -15 11 -21 23
-17 34 6 15 9 15 37 1 23 -12 30 -13 30 -2 0 13 -49 47 -68 47 -6 0 -27 -30
-47 -66z"/>
<path d="M2863 1503 c-9 -3 -13 -26 -13 -66 l-1 -62 -21 25 c-11 14 -28 35
-38 48 -11 13 -24 20 -34 16 -13 -5 -7 -18 32 -66 76 -97 94 -91 90 29 -2 58
-6 79 -15 76z"/>
<path d="M2036 1432 c-14 -37 -26 -71 -26 -75 0 -8 62 -37 80 -37 20 0 10 21
-15 30 -30 11 -30 16 -5 82 11 29 20 54 20 54 0 1 -6 4 -14 7 -11 4 -22 -13
-40 -61z"/>
<path d="M2156 1395 c-21 -85 -21 -92 12 -99 15 -4 35 -9 45 -12 11 -4 17 0
17 10 0 9 -8 16 -17 16 -39 0 -43 13 -27 73 14 55 13 77 -5 77 -5 0 -16 -29
-25 -65z"/>
<path d="M2690 1440 c0 -11 31 -143 35 -148 1 -1 9 0 18 3 12 5 13 13 7 38 -5
18 -14 51 -20 75 -6 25 -17 42 -25 42 -8 0 -15 -5 -15 -10z"/>
<path d="M2627 1378 l5 -53 -33 47 c-24 34 -41 48 -58 48 -19 0 -22 -4 -18
-22 3 -13 9 -49 12 -80 5 -42 12 -58 22 -58 13 0 14 10 8 55 -3 30 -4 55 -2
55 3 0 19 -22 37 -50 34 -53 37 -55 58 -41 10 6 12 22 7 57 -10 80 -15 94 -30
94 -11 0 -13 -11 -8 -52z"/>
<path d="M2350 1350 c0 -58 3 -71 19 -80 34 -18 78 -12 95 12 22 31 22 138 1
138 -11 0 -15 -13 -15 -53 0 -64 -19 -98 -47 -81 -14 8 -19 26 -21 73 -2 45
-7 61 -17 61 -12 0 -15 -15 -15 -70z"/>
<path d="M8125 3720 c-139 -17 -239 -64 -319 -151 -102 -110 -146 -245 -146
-444 0 -293 111 -479 336 -562 91 -33 247 -42 352 -19 141 30 227 83 293 180
41 62 46 86 27 147 l-11 39 -92 0 -93 0 -12 -29 c-14 -35 -64 -87 -104 -109
-24 -13 -57 -17 -146 -17 -108 0 -118 2 -163 28 -90 53 -133 142 -144 297 -10
150 26 287 93 354 52 52 108 70 214 71 135 0 197 -33 252 -134 17 -31 17 -31
102 -31 96 0 100 3 112 78 12 76 -73 190 -185 246 -91 47 -248 70 -366 56z"/>
<path d="M4126 3688 c-18 -57 -8 -107 118 -608 l133 -525 131 -3 131 -3 25 83
c14 46 66 222 115 392 50 170 92 310 94 312 2 2 55 -173 118 -389 l114 -392
126 -3 c93 -2 129 1 136 10 15 20 263 1018 263 1058 0 80 0 80 -116 80 l-103
0 -9 -32 c-5 -18 -44 -187 -87 -375 -44 -189 -82 -343 -85 -343 -3 0 -55 168
-116 373 l-110 372 -127 3 c-124 3 -127 2 -137 -20 -5 -13 -55 -178 -111 -368
-56 -190 -104 -351 -108 -358 -4 -7 -33 101 -65 240 -32 139 -71 310 -88 381
l-30 127 -104 0 c-75 0 -106 -4 -108 -12z"/>
<path d="M6454 3687 c-3 -8 -4 -52 -2 -98 l3 -84 110 0 110 0 3 98 3 97 -111
0 c-83 0 -112 -3 -116 -13z"/>
<path d="M6771 3168 c0 -385 4 -544 13 -573 l12 -40 99 0 100 0 0 570 0 570
-112 3 -113 3 1 -533z"/>
<path d="M7087 3693 c-4 -3 -7 -238 -7 -522 1 -459 3 -521 18 -566 l17 -50 95
0 95 0 3 573 2 572 -108 0 c-60 0 -112 -3 -115 -7z"/>
<path d="M11967 3693 c-4 -3 -7 -238 -7 -522 1 -459 3 -521 18 -566 l17 -50
95 0 95 0 3 573 2 572 -108 0 c-60 0 -112 -3 -115 -7z"/>
<path d="M12282 3158 c3 -461 5 -548 18 -573 l15 -30 95 0 95 0 3 573 2 572
-115 0 -116 0 3 -542z"/>
<path d="M5860 3445 c-181 -51 -279 -208 -280 -447 0 -206 71 -347 211 -417
82 -41 157 -54 264 -48 143 8 248 60 304 151 21 33 21 35 3 82 l-18 49 -68 3
c-65 3 -71 1 -100 -27 -43 -42 -95 -61 -164 -61 -109 0 -178 60 -198 173 l-6
37 271 0 270 0 17 56 c13 46 14 66 4 122 -25 145 -91 242 -205 298 -65 32 -85
37 -162 40 -59 3 -106 -1 -143 -11z m190 -203 c40 -20 80 -74 80 -108 l0 -24
-156 0 -156 0 7 28 c25 102 131 152 225 104z"/>
<path d="M9033 3449 c-151 -29 -260 -143 -294 -308 -18 -85 -6 -292 20 -366
61 -171 210 -256 425 -242 200 13 319 117 362 315 41 194 -8 416 -113 513 -90
83 -249 118 -400 88z m180 -203 c90 -37 134 -176 107 -334 -13 -80 -39 -125
-90 -160 -29 -20 -45 -23 -95 -20 -117 7 -166 74 -173 235 -9 191 52 292 176
293 23 0 57 -6 75 -14z"/>
<path d="M10627 3450 c-54 -14 -92 -35 -132 -75 l-35 -35 -11 45 -11 45 -94 0
-94 0 2 -437 3 -438 110 0 110 0 5 295 c5 286 6 296 28 332 59 94 224 104 274
16 10 -17 14 -103 18 -333 l5 -310 110 0 110 0 0 335 c0 324 -1 337 -23 391
-27 68 -80 125 -140 151 -51 23 -177 32 -235 18z"/>
<path d="M11380 3445 c-181 -51 -279 -208 -280 -447 0 -206 71 -347 211 -417
82 -41 157 -54 264 -48 142 8 249 61 304 151 21 33 21 35 3 82 l-18 49 -68 3
c-65 3 -71 1 -100 -27 -43 -42 -95 -61 -164 -61 -109 0 -178 60 -198 173 l-6
37 270 0 271 0 16 56 c14 48 15 67 5 124 -24 143 -99 247 -217 302 -80 38
-205 47 -293 23z m190 -203 c40 -20 80 -74 80 -108 l0 -24 -156 0 -156 0 7 28
c25 102 131 152 225 104z"/>
<path d="M6452 2993 l3 -438 110 0 110 0 3 438 2 437 -115 0 -115 0 2 -437z"/>
<path d="M9622 2993 l3 -438 110 0 110 0 5 265 c6 277 10 302 53 348 38 41 77
55 174 60 l93 5 0 99 0 100 -102 -4 c-110 -4 -148 -17 -200 -66 l-27 -25 -9
24 c-5 13 -11 33 -13 44 -4 18 -13 20 -102 23 l-97 3 2 -438z"/>
</g>
</svg>
